<svg width="21" height="20" viewBox="0 0 21 20" fill="none" xmlns="http://www.w3.org/2000/svg">
<path d="M17.5424 0H3.18071C2.19083 0 1.3855 0.788555 1.3855 1.75781V18.2422C1.3855 19.2114 2.19083 20 3.18071 20H17.5424C18.5323 20 19.3376 19.2114 19.3376 18.2422V1.75781C19.3376 0.788555 18.5323 0 17.5424 0ZM18.1408 18.2422C18.1408 18.5653 17.8724 18.8281 17.5424 18.8281H3.18071C2.85075 18.8281 2.58231 18.5653 2.58231 18.2422V1.75781C2.58231 1.43473 2.85075 1.17188 3.18071 1.17188H17.5424C17.8724 1.17188 18.1408 1.43473 18.1408 1.75781V18.2422Z" fill="#52555F"/>
<path d="M16.3457 2.34375H4.37758C4.0471 2.34375 3.77917 2.60609 3.77917 2.92969V7.69531C3.77917 8.01891 4.0471 8.28125 4.37758 8.28125H16.3457C16.6761 8.28125 16.9441 8.01891 16.9441 7.69531V2.92969C16.9441 2.60609 16.6761 2.34375 16.3457 2.34375ZM15.7473 7.10938H4.97598V3.51562H15.7473V7.10938Z" fill="#52555F"/>
<path d="M6.7712 9.45312H4.37758C4.0471 9.45312 3.77917 9.71547 3.77917 10.0391V12.3828C3.77917 12.7064 4.0471 12.9688 4.37758 12.9688H6.7712C7.10167 12.9688 7.3696 12.7064 7.3696 12.3828V10.0391C7.3696 9.71547 7.10167 9.45312 6.7712 9.45312ZM6.17279 11.7969H4.97598V10.625H6.17279V11.7969Z" fill="#52555F"/>
<path d="M6.7712 14.1406H4.37758C4.0471 14.1406 3.77917 14.403 3.77917 14.7266V17.0703C3.77917 17.3939 4.0471 17.6562 4.37758 17.6562H6.7712C7.10167 17.6562 7.3696 17.3939 7.3696 17.0703V14.7266C7.3696 14.403 7.10167 14.1406 6.7712 14.1406ZM6.17279 16.4844H4.97598V15.3125H6.17279V16.4844Z" fill="#52555F"/>
<path d="M11.5584 9.45312H9.16481C8.83433 9.45312 8.56641 9.71547 8.56641 10.0391V12.3828C8.56641 12.7064 8.83433 12.9688 9.16481 12.9688H11.5584C11.8889 12.9688 12.1568 12.7064 12.1568 12.3828V10.0391C12.1568 9.71547 11.8889 9.45312 11.5584 9.45312ZM10.96 11.7969H9.76322V10.625H10.96V11.7969Z" fill="#52555F"/>
<path d="M11.5584 14.1406H9.16481C8.83433 14.1406 8.56641 14.403 8.56641 14.7266V17.0703C8.56641 17.3939 8.83433 17.6562 9.16481 17.6562H11.5584C11.8889 17.6562 12.1568 17.3939 12.1568 17.0703V14.7266C12.1568 14.403 11.8889 14.1406 11.5584 14.1406ZM10.96 16.4844H9.76322V15.3125H10.96V16.4844Z" fill="#52555F"/>
<path d="M16.3457 9.45312H13.952C13.6216 9.45312 13.3536 9.71547 13.3536 10.0391V17.0703C13.3536 17.3939 13.6216 17.6562 13.952 17.6562H16.3457C16.6761 17.6562 16.9441 17.3939 16.9441 17.0703V10.0391C16.9441 9.71547 16.6761 9.45312 16.3457 9.45312ZM15.7473 16.4844H14.5504V10.625H15.7473V16.4844Z" fill="#52555F"/>
</svg>
