<svg width="51" height="56" viewBox="0 0 51 56" fill="" xmlns="http://www.w3.org/2000/svg">
<path d="M50.2263 27.517L48.0002 25.2679V3.8683L49.8706 1.97862C50.2373 1.60817 50.2373 1.00748 49.8706 0.637138C49.5038 0.266684 48.9094 0.266684 48.5427 0.637138L46.6723 2.52681H25.4909L23.2648 0.27784C22.8982 -0.0926134 22.3036 -0.0926134 21.937 0.27784C21.5704 0.648294 21.5704 1.24898 21.937 1.61933L24.068 3.77227L17.4591 32.0664C16.9141 32.7544 16.7317 33.6715 16.987 34.528C17.2711 35.481 18.0472 36.1959 19.0125 36.3938L23.227 37.2581C24.026 37.4221 24.7056 37.9323 25.0913 38.6581C25.4769 39.3839 25.5224 40.2379 25.2161 41.0013C24.7178 42.243 23.414 42.943 22.1171 42.665L6.32779 39.2854C3.95042 38.7764 1.55346 40.1399 0.750714 42.457C0.2852 43.8006 0.421065 45.2793 1.12334 46.5133C1.82573 47.7476 3.0221 48.6103 4.40533 48.8799L4.47072 48.8927C5.71494 49.1352 6.77155 49.9217 7.36968 51.0504C7.9677 52.1792 8.02973 53.5035 7.53954 54.6843C7.33893 55.1675 7.56411 55.7234 8.04229 55.9261C8.16094 55.9763 8.28393 56.0001 8.40496 56.0001C8.77196 56.0001 9.12044 55.7814 9.27114 55.418C9.98089 53.708 9.89125 51.7897 9.02496 50.155C8.15878 48.5203 6.62832 47.3811 4.82656 47.0299L4.76117 47.0171C3.91383 46.852 3.18124 46.3237 2.75113 45.5678C2.32101 44.8119 2.23787 43.9065 2.52302 43.0836C3.01452 41.6646 4.48306 40.8301 5.93828 41.1414L21.7272 44.521C23.9165 44.9896 26.1151 43.8092 26.9558 41.7141C27.4728 40.4261 27.396 38.9852 26.7453 37.7607C26.0947 36.5361 24.9484 35.6754 23.6002 35.3989L19.3857 34.5346C18.9665 34.4486 18.8258 34.1187 18.7847 33.9809C18.7514 33.8694 18.7041 33.6165 18.8476 33.3622L46.767 26.7058L48.898 28.8588C49.0814 29.0439 49.3218 29.1367 49.5621 29.1367C49.8023 29.1367 50.0427 29.0442 50.2261 28.8588C50.5929 28.4881 50.5929 27.8874 50.2263 27.517ZM44.7943 4.42403L36.0816 13.2264L27.3688 4.42403H44.7943ZM25.629 5.34935L34.7536 14.568L19.9924 29.4816L25.629 5.34935ZM21.3203 30.8233L36.0816 15.9097L45.2063 25.1284L21.3203 30.8233ZM46.1221 23.3705L37.4094 14.568L46.1221 5.76552V23.3705Z" fill=""/>
</svg>
