<svg width="41" height="56" viewBox="0 0 41 56" fill="" xmlns="http://www.w3.org/2000/svg">
<path d="M39.3112 6.85344H14.9168C14.6415 5.07598 13.8702 3.44805 12.7039 2.20795C11.3649 0.784109 9.62266 0 7.79842 0C3.81013 0 0.56543 3.73363 0.56543 8.32289C0.56543 12.9122 3.81013 16.6458 7.79842 16.6458C8.5307 16.6458 9.25024 16.5178 9.9446 16.269C11.0327 17.4502 12.3808 18.3339 13.9033 18.7895C14.8869 19.0839 15.6342 20.0179 15.8069 21.1692L16.7248 27.2869C17.0491 29.4483 18.0943 31.322 19.6679 32.5629C20.8611 33.5037 21.5735 35.0378 21.5735 36.6667V49.1358C21.0229 49.5373 20.6703 50.243 20.6703 51.0216C20.6703 51.0453 20.6706 51.0689 20.6712 51.0926C18.867 51.5169 17.381 51.9077 16.2529 52.2545C15.4844 52.4907 14.9047 52.6991 14.4805 52.8915C14.0853 53.0707 13.3496 53.4044 13.3496 54.1789C13.3496 55.2196 14.5254 55.3972 15.4703 55.5401C16.282 55.6628 17.4066 55.765 18.8128 55.844C21.1883 55.9776 23.5948 55.9998 23.6189 56C23.6207 56 23.6225 56 23.6243 56C23.6261 56 23.628 56 23.6297 56C23.6538 55.9998 26.0603 55.9775 28.4358 55.844C29.842 55.765 30.9666 55.6628 31.7783 55.5401C32.7232 55.3972 33.899 55.2196 33.899 54.1789C33.899 53.3558 33.2394 52.9312 30.83 52.2039C29.37 51.7632 27.5511 51.3183 26.2448 51.0147C26.2433 50.4148 26.036 49.8541 25.6751 49.4417V36.6665C25.6751 35.0377 26.3876 33.5036 27.5807 32.5628C29.1543 31.3219 30.1995 29.4482 30.5238 27.2868L31.4417 21.1691C31.6144 20.0178 32.3616 19.0837 33.3453 18.7894C36.6437 17.8024 39.1244 14.8092 39.909 11.1234C39.912 11.1092 39.9153 11.0952 39.9177 11.0808C40.0834 10.2879 40.1724 9.464 40.1724 8.62061V7.84459C40.1725 7.29805 39.7861 6.85344 39.3112 6.85344ZM7.79842 14.9839C4.60647 14.9839 2.00965 11.9958 2.00965 8.32289C2.00965 4.64997 4.60647 1.66184 7.79842 1.66184C9.25832 1.66184 10.6524 2.28922 11.7238 3.42847C12.5931 4.3528 13.188 5.54575 13.4437 6.85344H12.7041C12.1325 4.31988 10.1263 2.48828 7.79842 2.48828C5.00246 2.48828 2.72786 5.10573 2.72786 8.32289C2.72786 11.54 5.00256 14.1575 7.79842 14.1575C8.00658 14.1575 8.21522 14.1413 8.42301 14.1115C8.56159 14.3717 8.70997 14.6244 8.86747 14.8695C8.51654 14.9454 8.15933 14.9839 7.79842 14.9839ZM10.0096 5.7785C9.72769 5.45409 9.27039 5.45409 8.98847 5.7785L8.77251 6.027C8.57803 6.25067 8.51777 6.57027 8.59144 6.85344H7.93767C7.46269 6.85344 7.07631 7.29805 7.07631 7.84459V8.62061C7.07631 9.46378 7.16518 10.2875 7.33086 11.0801C7.33342 11.0955 7.33684 11.1105 7.34008 11.1256C7.43979 11.5935 7.56592 12.0506 7.71857 12.4935C5.75584 12.4443 4.17199 10.593 4.17199 8.32289C4.17199 6.02197 5.79881 4.15002 7.79842 4.15002C9.33256 4.15002 10.6717 5.2617 11.1923 6.85344H10.0828C10.2881 6.52848 10.2643 6.07152 10.0096 5.7785ZM25.8525 52.6189C28.3911 53.2067 29.9848 53.6522 30.9823 53.974C29.158 54.1802 26.2317 54.3152 23.6244 54.3382C21.0177 54.3152 18.0916 54.1802 16.2673 53.9742C17.2213 53.6663 18.7204 53.2454 21.0697 52.6949C21.7196 52.5428 22.1694 51.8425 22.1161 51.0666C22.1151 51.0518 22.1145 51.0367 22.1145 51.0215C22.1145 50.7641 22.2657 50.5378 22.4823 50.471C22.7981 50.3737 23.0177 50.0445 23.0177 49.6684V36.6665C23.0177 35.5725 22.7783 34.5115 22.3391 33.568C22.7427 33.5981 23.1834 33.6135 23.6244 33.6135C24.0654 33.6135 24.5061 33.5981 24.9097 33.568C24.4705 34.5116 24.2311 35.5726 24.2311 36.6665V49.8361C24.2311 50.1212 24.3582 50.3864 24.5677 50.5386C24.7136 50.6446 24.8008 50.825 24.8008 51.0214C24.8008 51.034 24.8004 51.0466 24.7998 51.0581C24.7582 51.7994 25.2107 52.4704 25.8525 52.6189ZM38.7285 8.62061H38.7284C38.7284 9.12012 38.6919 9.61166 38.6217 10.0917H16.8832C16.4845 10.0917 16.1611 10.4637 16.1611 10.9226C16.1611 11.3815 16.4844 11.7535 16.8832 11.7535H38.2298C37.3664 14.3772 35.4453 16.4442 32.9821 17.1812C31.4509 17.6393 30.2877 19.0937 30.0188 20.8865L29.101 27.0041C28.8436 28.7198 28.0139 30.2071 26.7646 31.1921C26.5709 31.3449 25.9957 31.7017 25.8907 31.7555C25.3193 32.0147 21.9344 32.0148 21.3591 31.756C21.2545 31.7028 20.6785 31.3453 20.4843 31.1922C19.235 30.2071 18.4053 28.7198 18.1479 27.0042L17.2301 20.8866C16.9612 19.0938 15.7979 17.6395 14.2668 17.1813C12.8731 16.7642 11.6532 15.921 10.6996 14.7925C10.677 14.7604 10.6522 14.7308 10.626 14.7033C9.92958 13.856 9.38122 12.8541 9.01908 11.7537H13.5236C13.9223 11.7537 14.2457 11.3817 14.2457 10.9227C14.2457 10.4639 13.9224 10.0918 13.5236 10.0918H8.62718C8.55703 9.61176 8.52053 9.12012 8.52053 8.62072V8.51528H38.7285V8.62061Z" fill=""/>
</svg>
