<svg width="50" height="44" viewBox="0 0 50 44" fill="" xmlns="http://www.w3.org/2000/svg">
<path d="M47.6607 16.4358L46.5855 15.1435L42.8117 3.5965C42.1687 1.64607 40.5243 0.353763 38.6901 0.341797H11.7359C9.90176 0.341797 8.25731 1.64607 7.61429 3.5965L3.89321 14.9999L2.34364 16.6273C0.994351 17.9315 0.214294 19.8461 0.214294 21.8563V38.6803C0.224836 41.4324 2.19606 43.658 4.62056 43.658H7.40347C9.82797 43.658 11.7992 41.4324 11.8097 38.6803V36.2392H37.9522V38.6803C37.9627 41.4324 39.9339 43.658 42.3585 43.658H45.1414C47.5659 43.658 49.5371 41.4324 49.5476 38.6803V21.4136C49.5371 19.535 48.8624 17.7401 47.6607 16.4358ZM9.59606 4.41017C9.93338 3.39308 10.7872 2.73496 11.7359 2.73496H38.7006C39.6493 2.73496 40.5032 3.40504 40.8405 4.41017L44.1294 14.4615H41.6733C41.0935 9.97428 37.4146 6.87513 33.4616 7.54522C30.3097 8.07171 27.8325 10.8837 27.3687 14.4615H6.30717L9.59606 4.41017ZM39.5228 14.4615H29.4981C30.0778 11.3144 32.7975 9.30419 35.5698 9.96231C37.5516 10.4409 39.1012 12.1999 39.5228 14.4615ZM9.70147 38.6803C9.69093 40.1162 8.66842 41.2649 7.40347 41.2649H4.62056C3.3556 41.2649 2.3331 40.1162 2.32256 38.6803V35.5452C2.95503 36.0119 3.7878 36.2392 4.62056 36.2392H9.70147V38.6803ZM47.4394 38.6803C47.4288 40.1162 46.4063 41.2649 45.1414 41.2649H42.3585C41.0935 41.2649 40.071 40.1042 40.0604 38.6803V36.2392H45.1414C45.9741 36.2392 46.8069 36.0119 47.4394 35.5452V38.6803ZM45.1414 33.8461H4.62056C3.36615 33.858 2.3331 32.7213 2.32256 31.2854V21.8563C2.32256 20.5401 2.83908 19.2837 3.72455 18.4341C3.73509 18.4221 3.75617 18.3982 3.76672 18.3862L5.20033 16.8546H45.1203L46.1322 18.0871C46.1428 18.111 46.1744 18.123 46.1849 18.1469C46.9755 18.9965 47.4288 20.1811 47.4288 21.4136V31.2854H47.4394C47.4288 32.7093 46.3958 33.858 45.1414 33.8461Z" fill=""/>
</svg>
